# xmcd CD database file
#
# Track frame offsets:
#	183
#	21845
#	33383
#	43603
#	58038
#	82858
#	104220
#	123388
#	146928
#	153028
#	174178
#	195123
#	207770
#	232358
#	246750
#	266420
#	270595
#	285040
#	300975
#	309990
#	330255
#
# Disc length: 4642 seconds
#
# Revision: 0
# Processed by: cddbd v1.4PL0 Copyright (c) Steve Scherf et al.
# Submitted via: Feurio! 1.65 - http://www.feurio.com
#
DISCID=10122015
DTITLE=Barefoot Jerry - Southern Delight - Barefoot Jerry
DYEAR=1900
DGENRE=
TTITLE0=Hospitality Song
TTITLE1=I'm Proud To Be A redneck
TTITLE2=Smokies
TTITLE3=Quit While You're A Head
TTITLE4=Blood Is Not The Answer
TTITLE5=Come To Me Tonight
TTITLE6=Finishing Touches
TTITLE7=The Minstrel Is Free At Last
TTITLE8=Nobody Knows
TTITLE9=That's OK, He'll Be Your Brother Someday
TTITLE10=Castle Rock
TTITLE11=One Woman
TTITLE12=In God We Trust
TTITLE13=Message
TTITLE14=Friends
TTITLE15=Snuff Queen
TTITLE16=Little Maggie
TTITLE17=Warm
TTITLE18=Fish 'N' Tits
TTITLE19=Ain't It Nice In Here
TTITLE20=Ebenezer
EXTD=
EXTT0=
EXTT1=
EXTT2=
EXTT3=
EXTT4=
EXTT5=
EXTT6=
EXTT7=
EXTT8=
EXTT9=
EXTT10=
EXTT11=
EXTT12=
EXTT13=
EXTT14=
EXTT15=
EXTT16=
EXTT17=
EXTT18=
EXTT19=
EXTT20=
PLAYORDER=
